<svg id="Layer_1" data-name="Layer 1" xmlns="http://www.w3.org/2000/svg" viewBox="0 0 510.2565 445.8628">
  <g>
    <path id="fullLogo" d="M.5644,237.22c-1.6706-23.3879,0-37.8661,10.0234-37.8661s11.6939,14.4782,38.98,46.219c16.7057,18.9329,42.321,36.1954,72.3911,36.1954,28.4,0,49.56-15.035,49.56-40.65.5569-65.7088-163.7151-49.56-162.6014-152.0212C9.474,33.4113,66.2732,0,129.7546,0c43.4346,0,100.7906,8.91,100.2337,58.47,0,30.627-.5568,44.5483-12.2508,44.5483S201.5888,85.1987,181.542,61.8108c-15.0351-17.2625-32.8544-32.2975-61.8108-32.2975-28.4,0-45.1052,15.5919-45.1052,36.1955,0,62.9245,164.8288,50.1169,164.8288,148.68,0,57.356-51.2305,99.6769-128.6333,99.6769C47.34,314.0658,4.4624,295.1328.5644,237.22Z" style="fill: #d45c64"/>
    <path id="fullLogo-2" data-name="fullLogo" d="M237.66,404.8823c21.8606-15.9915,21.8606-15.9915,32.2472-55.24l39.4948-149.2433c1.154-4.361-.6276-7.4249-4.9886-8.579L285.0313,186.69c-13.5675-3.59-6.7713-29.2719,7.0527-26.6506l19.6387,4.16c4.4892.6695,7.1685.3416,7.5532-1.1121,18.85-71.23,65.1083-93.2085,120.3477-78.59,41.6718,11.0277,70.6329,44.6163,61.5286,79.02-3.4622,13.083-15.0337,23.5016-31.5085,19.1418-38.28-10.13-1.8-63.7321-39.1108-73.6058-24.7124-6.54-40.259,18.9-49.8614,63.023-1.1541,4.361,1.1121,7.5531,5.6013,8.2227l38.7929,8.1919c21.2206,4.06,8.4679,38.5352-7.3942,33.8191L377.9379,211.795c-4.361-1.1541-7.2967.143-8.4508,4.504L329.9923,365.5423c-10.3866,39.249-10.3866,39.249,5.5482,65.2425,4.2759,7.3534.1578,15.078-11.9562,11.8722l-83.3436-22.0556C231.0342,418.1651,231.76,409.543,237.66,404.8823Z" style="fill: #d45c64"/>
  </g>
</svg>
